<svg width="61" height="42" viewBox="0 0 61 42" fill="none" xmlns="http://www.w3.org/2000/svg">
<path d="M56.2999 41.1865C53.4485 41.1865 51.7573 39.7274 51.6279 37.6256H54.3544C54.3544 38.3262 54.7426 39.2588 56.4293 39.3168C57.5984 39.3168 58.2455 38.6163 58.2455 38.0897C58.1161 37.2731 57.0763 37.2151 56.0411 37.0366C54.872 36.8671 53.9662 36.6306 53.3147 36.3405C52.4088 35.872 51.8867 34.8769 51.8867 33.8283C51.8867 31.9586 53.4485 30.4994 56.1705 30.4994C58.7675 30.4994 60.4543 31.8426 60.5792 33.8863H57.9866C57.9866 33.3642 57.8572 32.4851 56.2999 32.4851C55.2602 32.4851 54.6132 32.6592 54.4838 33.4177C54.4838 34.4708 56.6881 34.4128 58.3749 34.8189C59.9322 35.2294 60.9719 36.22 60.9719 37.6256C60.9719 40.1959 58.8969 41.1865 56.2999 41.1865Z" fill="white"/>
<path d="M6.6178 23.9426L15.5691 18.7441L20.3705 26.9814H8.30453" fill="white"/>
<path fill-rule="evenodd" clip-rule="evenodd" d="M24.1311 30.4799V40.877H26.7504V30.4799H24.1311Z" fill="white"/>
<path d="M2.46317 35.8325C2.46317 37.4657 3.89109 38.8088 5.44395 38.8088C7.13515 38.8088 8.4292 37.4657 8.4292 35.8325C8.4292 34.2573 7.13515 32.8562 5.44395 32.8562C3.89109 32.8562 2.46317 34.2573 2.46317 35.8325ZM5.31455 41.2051C2.46317 41.2051 0 38.8088 0 35.8325C0 32.8562 2.46317 30.518 5.31455 30.518C6.48366 30.518 7.52336 30.8125 8.4292 31.4506V30.634H11.0262V40.9686H8.4292V40.326C7.65277 40.9106 6.48366 41.2051 5.31455 41.2051Z" fill="white"/>
<path d="M39.9605 26.9785L27.5065 5.25642L36.4577 -8.2016e-05L52.0264 26.9785" fill="white"/>
<path d="M14.3996 35.8325C14.3996 37.4657 15.6981 38.8088 17.3848 38.8088C18.9377 38.8088 20.3701 37.4657 20.3701 35.8325C20.3701 34.2573 18.9377 32.8562 17.3848 32.8562C15.6981 32.8562 14.3996 34.2573 14.3996 35.8325ZM17.2554 41.2051C14.2702 41.2051 11.9364 38.8088 11.9364 35.8325C11.9364 32.8562 14.2702 30.518 17.2554 30.518C18.4201 30.518 19.4598 30.8125 20.3701 31.4506V27.0731H22.9626V40.9686H20.3701V40.326C19.4598 40.9106 18.4201 41.2051 17.2554 41.2051Z" fill="white"/>
<path d="M17.1276 14.6583L26.2083 9.52222L36.1992 26.9786H26.7259V29.5488H24.1333V26.9786" fill="white"/>
<path d="M59.2896 29.6299C58.6381 29.6299 57.9911 29.0453 57.9911 28.3448C57.9911 27.6442 58.6381 27.0596 59.2896 27.0596C60.066 27.0596 60.5881 27.6442 60.5881 28.3448C60.5881 29.0453 60.066 29.6299 59.2896 29.6299ZM59.2896 27.2381C58.6381 27.2381 58.2499 27.7602 58.2499 28.3448C58.2499 28.9293 58.6381 29.4559 59.2896 29.4559C59.9366 29.4559 60.3248 28.9293 60.3248 28.3448C60.3248 27.7602 59.9366 27.2381 59.2896 27.2381Z" fill="white"/>
<path d="M59.5573 29.0498L59.2985 28.4652H59.0397V29.0498H58.8434V27.6487H59.4279C59.5573 27.6487 59.8162 27.8271 59.8162 28.0592C59.8162 28.2912 59.6868 28.4072 59.5573 28.4652L59.8162 29.0498H59.5573ZM59.2985 27.8271H59.0397V28.2912H59.2985C59.5573 28.2912 59.5573 28.2332 59.5573 28.0592C59.5573 27.9387 59.5573 27.8271 59.2985 27.8271Z" fill="white"/>
<path d="M42.1547 35.8325C42.1547 37.4657 43.4532 38.8088 45.1399 38.8088C46.6973 38.8088 48.1207 37.4657 48.1207 35.8325C48.1207 34.2573 46.6973 32.8562 45.1399 32.8562C43.4532 32.8562 42.1547 34.2573 42.1547 35.8325ZM45.0061 41.2051C42.0253 41.2051 39.6915 38.8088 39.6915 35.8325C39.6915 32.8562 42.0253 30.518 45.0061 30.518C46.1752 30.518 47.2149 30.8125 48.1207 31.4506V30.634H50.5884V40.9686H48.1207V40.326C47.2149 40.9106 46.1752 41.2051 45.0061 41.2051Z" fill="white"/>
<path d="M30.2271 35.8325C30.2271 37.4657 31.655 38.8088 33.2123 38.8088C34.8991 38.8088 36.1976 37.4657 36.1976 35.8325C36.1976 34.2573 34.8991 32.8562 33.2123 32.8562C31.655 32.8562 30.2271 34.2573 30.2271 35.8325ZM36.1976 27.0731H38.7902V40.9686H36.1976V40.326C35.4167 40.9106 34.377 41.2051 33.2123 41.2051C30.2271 41.2051 27.7639 38.8088 27.7639 35.8325C27.7639 32.8562 30.2271 30.518 33.2123 30.518C34.377 30.518 35.4167 30.8125 36.1976 31.4506V27.0731Z" fill="white"/>
</svg>
