<svg width="100" height="99" viewBox="0 0 100 99" fill="none" xmlns="http://www.w3.org/2000/svg">
<path d="M42.875 15.9225L7.5833 74.25C6.85567 75.4975 6.47066 76.9118 6.46659 78.3524C6.46251 79.7929 6.83951 81.2094 7.56008 82.4609C8.28064 83.7124 9.31965 84.7553 10.5737 85.4859C11.8278 86.2164 13.2533 86.6092 14.7083 86.625H85.2916C86.7466 86.6092 88.1721 86.2164 89.4262 85.4859C90.6803 84.7553 91.7193 83.7124 92.4399 82.4609C93.1604 81.2094 93.5374 79.7929 93.5333 78.3524C93.5293 76.9118 93.1443 75.4975 92.4166 74.25L57.125 15.9225C56.3822 14.7102 55.3363 13.7079 54.0883 13.0122C52.8403 12.3166 51.4322 11.9512 50 11.9512C48.5677 11.9512 47.1597 12.3166 45.9116 13.0122C44.6636 13.7079 43.6178 14.7102 42.875 15.9225V15.9225Z" stroke="#F35B04" stroke-width="2" stroke-linecap="round" stroke-linejoin="round"/>
<path d="M50 37L50 63" stroke="#F35B04" stroke-width="2" stroke-linecap="round" stroke-linejoin="round"/>
<path d="M50 70.125H50.0417" stroke="#F35B04" stroke-width="2" stroke-linecap="round" stroke-linejoin="round"/>
</svg>
