<svg width="41" height="40" viewBox="0 0 41 40" fill="none" xmlns="http://www.w3.org/2000/svg">
<path d="M29.4624 17.3138H16.3608C15.9553 17.3138 15.6258 17.6433 15.6258 18.0488V20.8414L9.85811 20.2383V18.0488C9.85811 17.6433 9.52861 17.3138 9.1231 17.3138H0.735008C0.329496 17.3138 0 17.6433 0 18.0488V24.0905C0 24.4401 0.243235 24.7392 0.587936 24.8103L18.3877 28.4394C18.4079 34.5315 23.3698 39.4829 29.4666 39.4829C35.5739 39.4773 40.5463 34.5104 40.5463 28.3977C40.5463 22.2854 35.5741 17.3135 29.4621 17.3135L29.4624 17.3138ZM29.4624 38.0125C24.1611 38.0125 19.848 33.6994 19.848 28.3981C19.848 28.251 19.843 28.099 19.8681 27.9622C19.8784 27.9166 19.8632 27.871 19.8632 27.8254C19.8632 27.7798 19.8681 27.7292 19.8582 27.6836C19.848 27.638 19.8229 27.5973 19.8024 27.5517C19.7822 27.5111 19.772 27.4655 19.7465 27.4252C19.7211 27.3845 19.6808 27.3594 19.6504 27.3237C19.615 27.2883 19.5896 27.2526 19.5489 27.2275C19.5082 27.2021 19.4626 27.1869 19.417 27.1717C19.3764 27.1565 19.341 27.131 19.2954 27.1211L1.46482 23.492V18.7836H8.38817V20.902C8.38817 21.2771 8.67206 21.5914 9.04716 21.6317L16.2795 22.3869C16.3049 22.3918 16.33 22.3918 16.3555 22.3918C16.5379 22.3918 16.7105 22.3261 16.8473 22.2044C16.9993 22.0627 17.0905 21.8647 17.0905 21.6621V18.7882H29.4672C34.7685 18.7882 39.0817 23.1013 39.0817 28.4026C39.0817 33.7047 34.7685 38.0126 29.4618 38.0126L29.4624 38.0125Z" fill="#F35B04"/>
<path d="M29.4625 22.0928C25.9858 22.0928 23.1575 24.9207 23.1575 28.3978C23.1575 31.8745 25.9854 34.7028 29.4625 34.7028C32.9392 34.7028 35.7675 31.8748 35.7675 28.3978C35.7675 24.9207 32.9395 22.0928 29.4625 22.0928ZM29.4625 33.2332C26.7964 33.2332 24.6271 31.0638 24.6271 28.3978C24.6271 25.7317 26.7964 23.5624 29.4625 23.5624C32.1285 23.5624 34.3027 25.7317 34.3027 28.3978C34.3027 31.0642 32.1334 33.2332 29.4625 33.2332Z" fill="#F35B04"/>
<path d="M12.737 11.1451C13.1425 11.1451 13.472 10.8156 13.472 10.4101V0.735008C13.472 0.329496 13.1425 0 12.737 0C12.3315 0 12.002 0.329496 12.002 0.735008V10.4101C12.0073 10.8156 12.3315 11.1451 12.737 11.1451Z" fill="#F35B04"/>
<path d="M16.082 13.1625C16.1732 13.1978 16.2645 13.213 16.3557 13.213C16.6445 13.213 16.9235 13.0408 17.0348 12.7516L20.8007 3.32907C20.9527 2.95396 20.7703 2.5283 20.3902 2.37631C20.0151 2.22429 19.5894 2.40671 19.4375 2.78677L15.6716 12.2093C15.5245 12.5848 15.707 13.0105 16.0821 13.1625L16.082 13.1625Z" fill="#F35B04"/>
<path d="M8.44427 12.7525C8.56094 13.0414 8.83458 13.2139 9.12342 13.2139C9.21463 13.2139 9.30584 13.1987 9.39705 13.1633C9.77216 13.0113 9.95459 12.5856 9.80752 12.2106L6.04165 2.78799C5.88963 2.41289 5.46397 2.23046 5.0889 2.37753C4.7138 2.52955 4.53136 2.95521 4.67843 3.33029L8.44427 12.7525Z" fill="#F35B04"/>
</svg>
