<svg width="38" height="38" viewBox="0 0 38 38" fill="none" xmlns="http://www.w3.org/2000/svg">
<path d="M37 18.0001C37.0069 20.6398 36.3901 23.2438 35.2 25.6001C33.7889 28.4235 31.6195 30.7984 28.9349 32.4586C26.2503 34.1188 23.1565 34.9988 20 35.0001C17.3603 35.0069 14.7562 34.3902 12.4 33.2001L1 37.0001L4.8 25.6001C3.60986 23.2438 2.99312 20.6398 3 18.0001C3.00122 14.8436 3.88122 11.7498 5.54144 9.06516C7.20165 6.38055 9.57651 4.21119 12.4 2.80006C14.7562 1.60992 17.3603 0.993174 20 1.00006H21C25.1687 1.23004 29.1061 2.98958 32.0583 5.94177C35.0105 8.89397 36.77 12.8314 37 17.0001V18.0001Z" stroke="#F35B04" stroke-width="2" stroke-linecap="round" stroke-linejoin="round"/>
</svg>
