<svg width="45" height="27" viewBox="0 0 45 27" fill="none" xmlns="http://www.w3.org/2000/svg">
<path d="M44.9986 11.4465V19.7355C44.9986 20.309 44.519 20.774 43.9275 20.774C43.3356 20.774 42.8559 20.309 42.8559 19.7355V13.1065L36.4275 16.2226V21.8128C36.4275 22.2062 36.1983 22.5658 35.8356 22.7418L31.1251 25.027C25.6936 27.6577 19.3051 27.6577 13.8731 25.027L9.16332 22.7418C8.80029 22.5658 8.57142 22.2062 8.57142 21.8128V16.2226L0.592176 12.355C-0.197392 11.9721 -0.197392 10.8798 0.592176 10.4968L22.0209 0.109549C22.3222 -0.0365162 22.6774 -0.0365162 22.9791 0.109549L44.3867 10.4862V10.4865C44.5664 10.5686 44.7239 10.6997 44.8355 10.8722L44.8369 10.8743C44.8548 10.9021 44.8713 10.931 44.8868 10.9609C44.9671 11.1167 45.0033 11.2829 44.9998 11.446L44.9986 11.4465ZM34.8977 14.6416L39.3886 12.4645H22.4993C21.9078 12.4645 21.4282 11.9995 21.4282 11.4257C21.4282 10.8522 21.9078 10.3872 22.4993 10.3872H39.3886L22.4993 2.20018L3.46657 11.4256L10.1005 14.6415C10.1142 14.6478 10.1274 14.654 10.1407 14.661L22.4989 20.6515L34.8571 14.661C34.8704 14.654 34.8836 14.6478 34.8973 14.6415L34.8977 14.6416ZM22.0087 22.7365L10.7131 17.2615V21.1712L14.8306 23.1689C19.6587 25.5074 25.3383 25.5074 30.166 23.1692L34.2843 21.1713V17.2615L22.9776 22.7419C22.6601 22.8959 22.3014 22.8827 22.0083 22.7366L22.0087 22.7365Z" fill="#F35B04"/>
</svg>
