<svg width="43" height="54" viewBox="0 0 43 54" fill="none" xmlns="http://www.w3.org/2000/svg">
<path d="M13.0981 13.3367C13.0135 12.5555 14.2024 12.4361 14.2871 13.2049C15.0876 20.6888 14.5174 30.3597 14.3231 33.0382C17.65 32.8941 20.9145 32.8103 24.1804 32.8103C27.4462 32.8103 30.6996 32.8817 34.0251 33.0382C33.8073 30.3116 33.1025 20.5089 33.903 13.0251C33.9752 12.2439 35.1655 12.3647 35.092 13.1459L34.9338 14.9362L35.0309 15.0803L36.9857 19.0083C37.678 18.8998 39.3776 18.4564 41.6598 16.8336L36.1852 4.76005L29.5578 1.54053C28.3189 3.24708 26.3169 4.26717 24.1804 4.26717C22.0438 4.26717 20.0405 3.24571 18.8029 1.54053L12.1755 4.76005L6.71343 16.8336C8.98316 18.455 10.6827 18.8998 11.375 19.0083L13.2687 15.2122L13.0981 13.3381V13.3367ZM9.56585 52.3649L13.087 33.5998C13.148 32.8543 13.7307 24.9984 13.4144 17.5983L12.2976 19.8444C12.2129 20.0723 11.9826 20.2288 11.7274 20.2288C11.7274 20.2288 9.16629 20.1574 5.64516 17.5255C5.40237 17.369 5.30526 17.0574 5.42734 16.78L11.1807 4.08457C11.2293 3.96375 11.3264 3.85666 11.4596 3.79625L19.1193 0.0605178C19.2289 0.000108949 19.362 -0.0108745 19.4952 0.0124653C22.9664 0.637147 25.4068 0.637147 28.8794 0.0124653C29.0015 -0.0122474 29.1346 0.000108949 29.2429 0.0605178L36.9025 3.79625C37.0246 3.85666 37.1328 3.95277 37.1938 4.08457L42.9486 16.7828C43.0582 17.0354 42.9847 17.3347 42.7669 17.5036C39.2222 20.1588 36.6486 20.2302 36.6361 20.2302C36.4183 20.2302 36.1991 20.1094 36.102 19.9062L34.8034 17.288C34.4996 24.6757 35.1919 32.6525 35.2765 33.5778L38.9433 52.5228C38.9683 52.6189 38.9683 52.715 38.9683 52.8111L39.2388 54.0001H26.7969L26.3918 52.8111L24.2428 45.2189L22.0938 52.8111L21.733 54.0001H9.23705L9.56585 52.3663V52.3649ZM31.8192 18.5841C31.9038 18.2724 32.2437 18.0912 32.56 18.1749C32.875 18.271 33.0581 18.595 32.961 18.9081C32.4629 20.6503 31.9413 22.777 31.5653 25.1672C31.2504 27.1017 31.0312 29.216 30.9701 31.4498C30.9576 31.7738 30.6913 32.0264 30.3625 32.0264C30.0226 32.014 29.7673 31.7504 29.7798 31.4251C29.8408 29.1309 30.0711 26.9685 30.3749 24.986C30.7759 22.523 31.2975 20.3496 31.8192 18.5827V18.5841ZM15.7591 18.8367C15.7105 18.5127 15.9408 18.212 16.2696 18.1639C16.597 18.1159 16.9009 18.3438 16.9369 18.6692C17.2047 20.4224 17.4586 22.5848 17.6528 25.0368C17.811 26.9713 17.9206 29.1336 17.9566 31.4278C17.9566 31.7518 17.6889 32.0291 17.3615 32.0291C17.034 32.0291 16.7663 31.7642 16.7663 31.4402C16.7302 29.2174 16.6206 27.0797 16.4624 25.1219C16.2682 22.707 16.0129 20.5693 15.7591 18.8394V18.8367ZM14.2302 34.2258L10.7465 52.5819C10.7215 52.6903 10.759 52.7384 10.8075 52.8098H20.859L23.6754 42.8629C23.7239 42.6707 23.8821 42.5142 24.0888 42.4538C24.4037 42.37 24.7325 42.5499 24.8172 42.8629L27.6335 52.8098H37.7696L34.1888 34.2258C30.7898 34.0693 27.4878 33.9856 24.1859 33.9856C20.884 33.9856 17.6056 34.0693 14.2316 34.2258H14.2302ZM28.1885 1.32087C25.3235 1.78903 23.0413 1.78903 20.1764 1.32087C21.1961 2.43843 22.6529 3.07409 24.1831 3.07409C25.7134 3.07409 27.1576 2.43706 28.1898 1.32087H28.1885Z" fill="#F35B04"/>
</svg>
