<svg width="18" height="34" viewBox="0 0 18 34" fill="none" xmlns="http://www.w3.org/2000/svg">
<g clip-path="url(#clip0_1916_721)">
<path d="M11.7136 34V18.5052H17.0503L17.8191 12.4401H11.7136V8.58854C11.7136 7.73263 11.902 7.03169 12.2789 6.48568C12.6558 5.93967 13.4774 5.66667 14.7437 5.66667H18V0.265625C17.3065 0.177083 16.5678 0.110677 15.7839 0.0664062C15 0.0221351 14.2161 0 13.4322 0C13.402 0 13.3719 0 13.3417 0C13.3116 0 13.2814 0 13.2513 0C10.8995 0 8.98493 0.686191 7.50754 2.05859C6.03014 3.431 5.29146 5.41579 5.29146 8.01302V12.4401H0V18.5052H5.29146V34H11.7136Z" fill="white"/>
</g>
<defs>
<clipPath id="clip0_1916_721">
<rect width="18" height="34" fill="white"/>
</clipPath>
</defs>
</svg>
