<svg width="35" height="48" viewBox="0 0 35 48" fill="none" xmlns="http://www.w3.org/2000/svg">
<path d="M35 47.5055L35 0.494497C35 0.221258 34.786 -9.35232e-09 34.5228 -2.08584e-08L0.477188 -1.50904e-06C0.213516 -1.52057e-06 -9.69157e-09 0.221716 -2.16151e-08 0.494495L-2.07653e-06 47.5055C-2.08847e-06 47.7787 0.213957 48 0.477186 48L34.5228 48C34.786 48 35 47.7787 35 47.5055ZM11.3681 23.506C11.6131 20.2198 14.2663 17.6221 17.4996 17.6221C20.7324 17.6221 23.3852 20.2198 23.6302 23.506L11.3681 23.506ZM23.6306 24.495C23.3856 27.7812 20.7324 30.3793 17.5 30.3793C14.2667 30.3793 11.6135 27.7817 11.3685 24.495L23.6306 24.495ZM14.0874 2.81771C14.0874 3.09095 14.3013 3.31221 14.5646 3.31221L20.4364 3.31221C20.7001 3.31221 20.9136 3.09049 20.9136 2.81772L20.9136 0.989253L23.8886 0.989254L23.8886 6.81108L11.1113 6.81108L11.1113 0.989253L14.0872 0.989253L14.0874 2.81771ZM15.0418 0.989253L19.9588 0.989253L19.9588 2.32324L15.0418 2.32324L15.0418 0.989253ZM10.1572 0.989253L10.1572 7.30555C10.1572 7.57879 10.3711 7.80005 10.6344 7.80005L14.277 7.80005C14.8732 9.06962 16.1232 9.90642 17.5001 9.90642C18.8779 9.90642 20.1275 9.06968 20.7232 7.80005L24.3658 7.80005C24.6295 7.80005 24.843 7.57833 24.843 7.30555L24.843 0.989254L34.0458 0.989254L34.0458 23.5062L24.5855 23.5062C24.3378 19.6748 21.259 16.6333 17.5 16.6333C13.7402 16.6333 10.6618 19.6748 10.4142 23.5062L0.954348 23.5062L0.954349 0.989253L10.1572 0.989253ZM15.3752 7.80003L19.6242 7.80003C19.1341 8.48772 18.3476 8.91737 17.5002 8.91737C16.6523 8.91645 15.8662 8.48773 15.3753 7.80003L15.3752 7.80003ZM0.954642 24.4949L10.4145 24.4949C10.6622 28.3276 13.7406 31.3686 17.5003 31.3686C21.2592 31.3686 24.3381 28.3281 24.5858 24.4953L34.0461 24.4949L34.0461 47.0118L24.8437 47.0118L24.8437 40.6955C24.8437 40.4223 24.6298 40.201 24.3666 40.201L20.7239 40.201C20.1278 38.9314 18.8778 38.0946 17.5008 38.0946C16.123 38.0946 14.8725 38.9323 14.2778 40.201L10.6351 40.201C10.3715 40.201 10.1579 40.4227 10.1579 40.6955L10.1579 47.0118L0.95471 47.0118L0.954642 24.4949ZM15.0422 47.0118L15.0422 45.6769L19.9593 45.6769L19.9593 47.0108L15.0422 47.0113L15.0422 47.0118ZM20.9141 47.0118L20.9141 45.1824C20.9141 44.9091 20.7001 44.6879 20.4369 44.6879L14.565 44.6879C14.3014 44.6879 14.0878 44.9096 14.0878 45.1824L14.0878 47.0108L11.1119 47.0108L11.1119 41.189L23.8893 41.1895L23.8893 47.0113L20.9142 47.0113L20.9141 47.0118ZM19.6245 40.2001L15.3755 40.2001C15.8656 39.5114 16.6521 39.0827 17.5004 39.0827C18.3482 39.0832 19.1344 39.5119 19.6244 40.2001L19.6245 40.2001Z" fill="#F35B04"/>
</svg>
