<svg width="43" height="43" viewBox="0 0 43 43" fill="none" xmlns="http://www.w3.org/2000/svg">
<path d="M33.8 16.0333H26.9667V9.2C26.9667 8.83764 26.823 8.49011 26.5668 8.23318C26.3107 7.97625 25.9631 7.83333 25.6 7.83333H17.4C17.0376 7.83333 16.6901 7.97703 16.4332 8.23318C16.1762 8.48933 16.0333 8.83686 16.0333 9.2V16.0333H9.2C8.83764 16.0333 8.49011 16.177 8.23318 16.4332C7.97625 16.6893 7.83333 17.0369 7.83333 17.4V25.6C7.83333 25.9624 7.97703 26.3099 8.23318 26.5668C8.48933 26.8238 8.83686 26.9667 9.2 26.9667H16.0333V33.8C16.0333 34.1624 16.177 34.5099 16.4332 34.7668C16.6893 35.0238 17.0369 35.1667 17.4 35.1667H25.6C25.9624 35.1667 26.3099 35.023 26.5668 34.7668C26.8238 34.5107 26.9667 34.1631 26.9667 33.8V26.9667H33.8C34.1624 26.9667 34.5099 26.823 34.7668 26.5668C35.0238 26.3107 35.1667 25.9631 35.1667 25.6V17.4C35.1667 17.0376 35.023 16.6901 34.7668 16.4332C34.5107 16.1762 34.1631 16.0333 33.8 16.0333ZM35.1667 1H7.83333C6.02074 1 4.28312 1.72004 3.00158 3.00158C1.72004 4.28312 1 6.02074 1 7.83333V35.1667C1 36.9793 1.72004 38.7169 3.00158 39.9984C4.28312 41.28 6.02074 42 7.83333 42H35.1667C36.9793 42 38.7169 41.28 39.9984 39.9984C41.28 38.7169 42 36.9793 42 35.1667V7.83333C42 6.02074 41.28 4.28312 39.9984 3.00158C38.7169 1.72004 36.9793 1 35.1667 1Z" stroke="#F35B04" stroke-width="2" stroke-miterlimit="10"/>
</svg>
