<svg width="34" height="34" viewBox="0 0 34 34" fill="none" xmlns="http://www.w3.org/2000/svg">
<path fill-rule="evenodd" clip-rule="evenodd" d="M17 0C12.3817 0 11.8065 0.0198333 9.99033 0.104833C3.81367 0.388167 0.385333 3.81367 0.102 9.99033C0.0198333 11.8065 0 12.3845 0 17C0 21.6183 0.0198333 22.1963 0.102 24.0097C0.385333 30.1835 3.81367 33.6147 9.99033 33.898C11.8065 33.9802 12.3817 34 17 34C21.6183 34 22.1963 33.9802 24.0125 33.898C30.1778 33.6147 33.6203 30.1892 33.898 24.0097C33.9802 22.1963 34 21.6183 34 17C34 12.3845 33.9802 11.8065 33.898 9.99033C33.6203 3.82217 30.1892 0.385333 24.0125 0.104833C22.1963 0.0198333 21.6183 0 17 0ZM17 3.06543C21.539 3.06543 22.0774 3.08243 23.8709 3.1646C28.4807 3.37426 30.6284 5.55876 30.8409 10.1318C30.9202 11.9253 30.9372 12.4608 30.9372 16.9998C30.9372 21.5388 30.9202 22.0771 30.8409 23.8678C30.6284 28.4379 28.4835 30.6281 23.8709 30.8378C22.0774 30.9171 21.5419 30.9369 17 30.9369C12.461 30.9369 11.9227 30.9199 10.132 30.8378C5.5137 30.6253 3.37453 28.4323 3.16203 23.8678C3.0827 22.0771 3.06287 21.5388 3.06287 16.9998C3.06287 12.4608 3.0827 11.9224 3.16203 10.1318C3.3717 5.55593 5.51937 3.37143 10.132 3.16176C11.9227 3.0796 12.461 3.06543 17 3.06543ZM8.2705 16.9992C8.2705 12.1768 12.1805 8.26965 17 8.26965C21.8195 8.26965 25.7295 12.1797 25.7295 16.9992C25.7295 21.8215 21.8195 25.7287 17 25.7287C12.1805 25.7287 8.2705 21.8215 8.2705 16.9992ZM17 22.6663C13.8692 22.6663 11.3334 20.1305 11.3334 16.9997C11.3334 13.8717 13.8692 11.333 17 11.333C20.128 11.333 22.6695 13.8688 22.6695 16.9997C22.6695 20.1305 20.128 22.6663 17 22.6663ZM24.0323 7.9277C24.0323 6.80003 24.9475 5.8877 26.0723 5.8877C27.2028 5.8877 28.1152 6.80003 28.1152 7.9277C28.1152 9.05536 27.2 9.9677 26.0723 9.9677C24.9447 9.9677 24.0323 9.05253 24.0323 7.9277Z" fill="white"/>
</svg>
