<svg width="128" height="53" viewBox="0 0 128 53" fill="none" xmlns="http://www.w3.org/2000/svg">
<path d="M24.5672 0.0268555H7.45661C7.06936 0.0268555 6.73572 0.30389 6.67019 0.688164L0.0124155 38.4543C-0.0739717 38.9458 0.301366 39.3926 0.798837 39.3926H9.79204C10.1793 39.3926 10.5129 39.1126 10.5785 38.7313L12.7143 26.5358C12.7828 26.1515 13.1135 25.8745 13.5007 25.8745H14.9902C15.3298 25.8745 15.6306 26.089 15.7438 26.4047L18.2491 33.4587L18.5052 34.1617C19.9828 37.4474 23.2297 39.3896 26.6197 39.3896H31.6808C32.2497 39.3896 32.637 38.8147 32.4195 38.2874L26.8222 24.6353C32.0412 22.9165 35.3597 19.2376 36.1908 13.4913L36.3665 12.3653C37.7904 2.22526 31.4484 0.0268555 24.5672 0.0268555ZM14.5344 16.1693L15.6157 9.94053C15.6813 9.55626 16.0149 9.27922 16.4022 9.27922H21.1892C23.9149 9.27922 24.8026 10.3516 24.5077 12.836L24.4511 13.3067C24.1562 15.7374 22.6697 17.1047 19.3512 17.1047H15.3238C14.8263 17.1047 14.451 16.6579 14.5344 16.1693Z" fill="white"/>
<path d="M38.9819 39.3955H47.9722C48.3594 39.3955 48.6931 39.1185 48.7586 38.7342L53.7363 10.4797C54.6985 5.02833 50.5012 0.0297852 44.9665 0.0297852L38.1955 38.4572C38.1091 38.9457 38.4845 39.3955 38.9819 39.3955Z" fill="white"/>
<path d="M116.516 9.17194H95.3276C94.8331 9.17194 94.4578 8.72809 94.5382 8.23955L95.8072 0.667267C95.8698 0.282993 96.2034 0 96.5966 0H127.353C126.466 5.29345 121.881 9.17194 116.516 9.17194Z" fill="white"/>
<path d="M113.997 24.099H92.8462C92.3526 24.099 91.9779 23.6665 92.0582 23.1905L93.325 15.8125C93.3874 15.4381 93.7205 15.1624 94.113 15.1624H124.815C123.929 20.32 119.355 24.099 113.997 24.099Z" fill="white"/>
<path d="M111.41 39.3956H90.2217C89.7272 39.3956 89.3518 38.9517 89.4323 38.4632L90.7013 30.8909C90.7638 30.5066 91.0975 30.2236 91.4907 30.2236H122.247C121.36 35.5171 116.778 39.3956 111.41 39.3956Z" fill="white"/>
<path d="M73.257 9.31547L81.7141 9.25901C86.783 9.20255 90.8559 5.07225 90.8559 0H73.4882C67.7523 0 59.224 3.31613 59.224 12.4711C59.2981 15.7991 60.6024 18.0188 62.4788 19.6591C65.1852 22.4195 69.3915 23.6467 72.759 25.1562C75.0444 26.3923 74.1581 30.0205 71.5169 30.0056L63.0598 30.0621C57.9909 30.1185 53.918 34.2488 53.918 39.3211H71.2857C77.0216 39.3211 85.5499 36.0049 85.5499 26.8499C85.4758 23.5219 84.1715 21.3023 82.2951 19.662C79.5887 16.9016 75.3824 15.6743 72.0149 14.1649C69.7324 12.9258 70.6188 9.29764 73.257 9.31547Z" fill="white"/>
<path d="M5.26449 52.863L4.82957 51.6685H2.01454L1.57963 52.863H0.0395508L2.61031 45.9609H4.2189L6.80158 52.863H5.26449ZM2.47031 50.3995H4.37381L3.42057 47.781L2.47031 50.3995Z" fill="white"/>
<path d="M11.5288 49.7352V49.0709C11.5288 46.9291 12.5625 45.8478 14.7877 45.8389C16.9533 45.8478 18.0287 46.7832 18.0287 48.5943V48.6777H16.429V48.5943C16.4082 47.6173 15.8511 47.233 14.7877 47.233C13.6855 47.233 13.1285 47.7215 13.1285 49.062V49.7591C13.1285 51.1204 13.6855 51.6089 14.7877 51.6089C15.8601 51.6089 16.429 51.2336 16.429 50.2357V50.1642H18.0287V50.2357C18.0287 52.0558 16.9652 52.9911 14.7877 53.0001C12.5595 52.9882 11.5288 51.9068 11.5288 49.7352Z" fill="white"/>
<path d="M27.9544 52.863L27.5195 51.6685H24.7045L24.2696 52.863H22.7295L25.3003 45.9609H26.9118L29.4945 52.863H27.9544ZM25.1632 50.3995H27.0667L26.1135 47.781L25.1632 50.3995Z" fill="white"/>
<path d="M37.6712 45.9729C39.959 45.9729 41.0224 46.9798 41.0224 49.1841V49.631C41.0224 51.8562 39.959 52.863 37.6712 52.863H34.6953V45.9729H37.6712ZM39.4228 49.1633C39.4228 47.9062 38.8568 47.4266 37.7218 47.4266H36.2741V51.4064H37.7218C38.8568 51.4064 39.4228 50.9268 39.4228 49.6399V49.1633Z" fill="white"/>
<path d="M52.0442 47.4296H48.4606V48.7701H51.4574V50.0778H48.4606V51.4093H52.0442V52.863H46.8818V45.9729H52.0442V47.4296Z" fill="white"/>
<path d="M63.8257 45.9729H65.8096V52.863H64.2814V48.5824L62.4911 52.3745H61.1626L59.3514 48.5615V52.863H57.8232V45.9729H59.8161L61.8328 50.194L63.8257 45.9729Z" fill="white"/>
<path d="M77.9068 45.9729L75.4582 49.8901V52.8839H73.8883V50.0063L71.3652 45.9729H73.2687L74.6569 48.499L76.0748 45.9729H77.9068Z" fill="white"/>
</svg>
