<svg width="46" height="38" viewBox="0 0 46 38" fill="none" xmlns="http://www.w3.org/2000/svg">
<path d="M33 37V33C33 30.8783 32.1571 28.8434 30.6569 27.3431C29.1566 25.8429 27.1217 25 25 25H9C6.87827 25 4.84344 25.8429 3.34315 27.3431C1.84285 28.8434 1 30.8783 1 33V37" stroke="#F35B04" stroke-width="2" stroke-linecap="round" stroke-linejoin="round"/>
<path d="M17 17C21.4183 17 25 13.4183 25 9C25 4.58172 21.4183 1 17 1C12.5817 1 9 4.58172 9 9C9 13.4183 12.5817 17 17 17Z" stroke="#F35B04" stroke-width="2" stroke-linecap="round" stroke-linejoin="round"/>
<path d="M45 36.9998V32.9998C44.9987 31.2272 44.4087 29.5053 43.3227 28.1044C42.2368 26.7035 40.7163 25.7029 39 25.2598" stroke="#F35B04" stroke-width="2" stroke-linecap="round" stroke-linejoin="round"/>
<path d="M31 1.25977C32.7208 1.70037 34.2461 2.70117 35.3353 4.10439C36.4245 5.50761 37.0157 7.23343 37.0157 9.00977C37.0157 10.7861 36.4245 12.5119 35.3353 13.9151C34.2461 15.3184 32.7208 16.3192 31 16.7598" stroke="#F35B04" stroke-width="2" stroke-linecap="round" stroke-linejoin="round"/>
</svg>
