<svg width="108" height="28" viewBox="0 0 108 28" fill="none" xmlns="http://www.w3.org/2000/svg">
<g clip-path="url(#clip0_1916_727)">
<path fill-rule="evenodd" clip-rule="evenodd" d="M44.414 15.5891L44.4069 6.6316H45.108C46.0994 6.68044 47.6714 6.98739 47.7281 8.72448V17.675C47.1545 17.689 44.499 17.8495 44.414 15.5891ZM61.4941 12.7917C61.6853 13.0358 61.8199 13.3079 61.8978 13.6079C61.9544 13.8311 61.9969 14.0683 62.004 14.3334C61.9969 15.6519 61.3384 16.6356 59.7663 17.2216C58.9661 17.5355 57.7906 17.6681 57.0117 17.689H50.2419C50.2632 17.3053 50.3198 15.5473 52.1397 15.4845H56.5655C57.6348 15.4845 58.6829 15.2961 58.6829 14.3892C58.6829 13.4335 57.5074 13.2939 56.5655 13.2939H54.5899C50.8722 13.2312 49.8595 11.3615 49.8595 10.029C49.8595 8.87796 50.5464 7.75478 52.0972 7.16877C52.8974 6.85484 54.0234 6.70834 54.9793 6.66648C55.907 6.62463 61.2888 6.66648 61.6004 6.66648C61.5791 7.07111 61.5012 8.82215 59.6672 8.86401H55.3051C54.3633 8.86401 53.1878 9.00353 53.1878 9.95928C53.1878 10.8592 54.2075 11.0546 55.2555 11.0546C55.4325 11.0685 55.6096 11.0685 55.7724 11.0685H57.3728C57.9606 11.0825 58.3996 11.1383 58.9944 11.2778C60.1629 11.5289 60.9984 12.1568 61.4941 12.7917ZM73.6244 15.4705C75.4868 15.5333 75.5151 17.3611 75.5364 17.696H69.6731C69.142 17.696 68.5259 17.6053 67.8319 17.4169C66.4794 17.0472 65.4526 16.4193 64.7515 15.5333C64.3762 15.052 64.1071 14.5008 63.9514 13.9148C63.8097 13.3916 63.746 12.8544 63.7531 12.3103C63.746 9.97324 64.7374 8.33381 66.7272 7.37806C67.7399 6.87577 68.7454 6.6316 69.7439 6.6316H75.5364V6.70136C75.5081 7.1618 75.3948 8.75937 73.6953 8.85703H70.0696C67.5628 8.96168 67.2442 11.0336 67.2442 11.0336H74.807V11.0964C74.7787 11.5569 74.6654 13.1614 72.9588 13.2521H67.2725C67.2725 13.2521 67.3079 15.4636 70.105 15.4636L73.6244 15.4705ZM90.655 6.6316C91.6322 6.68044 93.1689 6.98042 93.268 8.64077V17.696H87.1002C86.5762 17.696 85.9743 17.6053 85.2874 17.4169C83.949 17.0611 82.9364 16.4333 82.2353 15.5333C81.8458 15.052 81.5697 14.4799 81.3926 13.8311C81.251 13.2939 81.1873 12.7498 81.1944 12.1917L81.2014 6.63858H81.9804C82.9718 6.70834 84.4164 7.05715 84.4801 8.71053V11.7871C84.4801 12.2615 84.5297 12.694 84.6288 13.0777C84.7563 13.5451 84.9475 13.9427 85.2165 14.2846C85.5919 14.759 86.4275 15.4217 87.5463 15.4566H89.9327L89.9469 6.6316H90.655ZM102.035 12.1847C102.615 12.1847 104.407 12.087 104.407 10.6151C104.407 10.4406 104.393 10.2802 104.343 10.1337C104.279 9.93138 104.166 9.75 104.025 9.59652C103.593 9.14306 102.948 8.91284 101.872 8.91284H99.2659L99.2588 12.1777H102.035V12.1847ZM107.601 9.46397C107.671 9.74302 107.707 10.05 107.7 10.3848C107.707 12.0103 106.836 13.1614 105.094 13.8451C104.166 14.2148 103.012 14.4032 102.183 14.4032H99.273L99.2659 17.689H98.5436C97.5522 17.6402 96.0014 17.3193 95.9377 15.6031L95.9447 6.65951H102.275C102.799 6.65951 103.663 6.73625 104.315 6.88275C105.582 7.18273 106.503 7.692 107.077 8.41055C107.317 8.73844 107.494 9.08725 107.601 9.46397ZM7.15921 15.8473C10.1192 19.74 12.109 19.6075 13.7873 19.8516C12.5977 20.333 11.6063 20.5493 10.2396 20.5493C4.58161 20.5493 0 16.0356 0 10.4616C0 4.89451 4.58161 0.380859 10.2396 0.380859C15.763 0.380859 20.2667 4.6922 20.465 10.0918C18.8221 9.8965 17.9299 8.3966 15.8763 6.61067C13.9573 4.94334 10.9477 5.43866 10.9477 5.43866C10.9477 5.43866 13.9714 8.66867 16.6198 11.2848C17.5333 12.1917 18.3619 12.6242 19.1337 12.6103C19.4524 12.6033 19.7569 12.5266 20.0401 12.3801C19.7144 13.0986 19.2329 13.8172 18.4681 13.9916C17.42 14.2288 16.1029 13.4404 14.3326 11.6545C14.3326 11.6545 12.7747 10.0151 10.7282 7.88733C8.3772 5.43866 5.16228 6.45719 5.14812 6.47812C5.14812 6.47812 6.94677 8.11057 9.59518 11.0894L11.5567 13.3009C13.6386 15.6589 15.4656 16.7053 17.2147 16.6007C17.5121 16.5798 17.8095 16.524 18.0928 16.4333C16.2587 18.6657 13.9006 19.1191 10.2183 14.9403C9.22695 13.8172 7.21586 11.3824 6.98218 11.1313C4.85778 8.63379 2.09607 9.31747 2.09607 9.31747C2.72631 10.1686 3.41319 10.929 7.15921 15.8473ZM42.0772 8.71053L42.0913 17.696H31.6393C31.1153 17.696 30.5134 17.6053 29.8265 17.4169C28.4881 17.0611 27.4684 16.4333 26.7603 15.5403C26.3637 15.031 26.0805 14.452 25.9105 13.8381C25.7689 13.3009 25.7052 12.7568 25.7052 12.2056L25.7123 6.63858H25.8256H26.2363C27.2135 6.66648 28.9201 6.91763 28.9909 8.71751V11.8219C28.998 12.3033 29.0546 12.7358 29.1609 13.1335C29.26 13.5172 29.437 13.8869 29.6636 14.2148C30.1593 14.9124 31.2994 15.324 32.1987 15.4496L32.3475 15.4705V6.64555H32.9352C33.9266 6.69439 35.4845 7.00134 35.5553 8.71751L35.5624 14.0404C35.6049 15.2473 36.6175 15.4426 37.0636 15.4636H38.8198L38.841 6.6316C38.8623 6.6316 38.8906 6.6316 38.9189 6.6316H39.3225C40.2998 6.65253 42.0134 6.90368 42.0772 8.71053Z" fill="white"/>
<path fill-rule="evenodd" clip-rule="evenodd" d="M74.2334 25.1253H74.3892C74.8636 25.0904 75.6072 24.8671 75.6567 23.6533V22.9417C75.6072 21.7208 74.8636 21.5046 74.3892 21.4697H74.2334C73.7589 21.5046 73.0154 21.7208 72.9658 22.9417V23.6533C73.0154 24.8741 73.7589 25.0904 74.2334 25.1253ZM77.1155 23.8347C77.0093 25.6694 75.4655 25.9973 74.4741 26.0461H74.1484C73.157 25.9973 71.6133 25.6624 71.5071 23.8347V22.7603C71.6133 20.9255 73.157 20.5977 74.1484 20.5488H74.4741C75.4585 20.5977 77.0093 20.9325 77.1155 22.7603V23.8347ZM96.3837 25.8368C95.9235 25.8159 95.2083 25.6764 95.1587 24.895V20.6604H98.0408C98.2886 20.6604 98.5648 20.7023 98.8905 20.793C99.5137 20.9604 99.9881 21.2534 100.321 21.672C100.505 21.9022 100.633 22.1673 100.718 22.4673C100.781 22.6975 100.81 22.9556 100.81 23.2347L100.802 25.8299H100.441C99.9811 25.802 99.3013 25.6345 99.2729 24.8602V23.4231C99.28 23.2207 99.2517 23.0184 99.2021 22.8161C99.1525 22.6138 99.0534 22.4185 98.9259 22.251C98.7489 22.0278 98.3594 21.7208 97.8354 21.7069H96.7166L96.7095 25.8299L96.3837 25.8368ZM79.9268 25.8368C79.4665 25.8159 78.7513 25.6764 78.7017 24.895V20.6604H81.5838C81.8316 20.6604 82.1078 20.7023 82.4336 20.793C83.0567 20.9604 83.5312 21.2534 83.8569 21.672C84.041 21.9022 84.1685 22.1673 84.2535 22.4673C84.3172 22.6975 84.3455 22.9556 84.3455 23.2347L84.3384 25.8299H83.9773C83.517 25.802 82.8372 25.6345 82.8089 24.8602V23.4231C82.8159 23.2207 82.7876 23.0184 82.738 22.8161C82.6885 22.6138 82.5893 22.4185 82.4619 22.251C82.2848 22.0278 81.8954 21.7208 81.3714 21.7069H80.2596L80.2525 25.8299L79.9268 25.8368ZM90.1805 25.509V25.8368L87.1426 25.8299C86.8381 25.8229 86.4487 25.7182 86.3 25.5717C86.0946 25.4183 85.9742 25.195 85.9671 24.8323V20.6744H86.2929C86.7602 20.6953 87.4967 20.8488 87.525 21.679V24.2951H89.1608C90.0035 24.323 90.1522 25.0555 90.1805 25.509ZM91.7738 24.8602V20.6744H92.0995C92.5598 20.6953 93.2963 20.8418 93.3246 21.6511V25.8368C93.0414 25.8368 91.8021 25.9206 91.7738 24.8602ZM106.8 24.7974C107.671 24.8253 107.686 25.6834 107.693 25.8368H104.952C104.704 25.8368 104.414 25.795 104.095 25.7043C103.458 25.5299 102.984 25.2369 102.658 24.8253C102.481 24.602 102.353 24.3439 102.282 24.0649C102.219 23.8207 102.19 23.5696 102.19 23.3184C102.19 22.2301 102.651 21.4557 103.578 21.0162C104.053 20.786 104.52 20.6674 104.988 20.6674H107.7V20.7023C107.686 20.9186 107.629 21.665 106.836 21.7069H105.143C103.975 21.7557 103.826 22.7254 103.826 22.7254H107.36V22.7533C107.346 22.9696 107.289 23.7161 106.496 23.7579H103.833C103.833 23.7579 103.847 24.7904 105.157 24.7904H106.8V24.7974Z" fill="#00EB84"/>
</g>
<defs>
<clipPath id="clip0_1916_727">
<rect width="107.7" height="27.2493" fill="white" transform="translate(0 0.380859)"/>
</clipPath>
</defs>
</svg>
