<svg width="36" height="36" viewBox="0 0 36 36" fill="none" xmlns="http://www.w3.org/2000/svg">
<path d="M30.6161 5.22321C27.0803 1.79463 22.875 0.0535719 18 0C14.6786 0.0535719 11.6786 0.857135 9 2.41071C6.32141 4.01787 4.17858 6.1607 2.57143 8.83929C1.01785 11.5179 0.214286 14.5178 0.160714 17.8393C0.160714 21.0536 0.937492 24.0268 2.49107 26.7589L0 36L9.48214 33.5089C12.1072 34.9554 14.9464 35.6786 18 35.6786C21.3214 35.625 24.3214 34.8214 27 33.2679C29.7322 31.6607 31.9018 29.5179 33.5089 26.8393C35.1161 24.1607 35.9464 21.1607 36 17.8393C36 15.4286 35.5179 13.1518 34.5536 11.0089C33.6429 8.86606 32.3304 6.93751 30.6161 5.22321ZM18 32.7054C15.2678 32.6518 12.75 31.9554 10.4464 30.6161L9.88393 30.2946L4.25893 31.7411L5.78571 26.2768L5.46429 25.7143C3.96428 23.3036 3.1875 20.6786 3.13393 17.8393C3.24107 13.6607 4.71427 10.1786 7.55357 7.39286C10.3393 4.55356 13.8214 3.10714 18 3.05357C22.0714 3.05357 25.5536 4.49999 28.4464 7.39286C31.3929 10.2857 32.9196 13.7678 33.0268 17.8393C32.8661 22.0179 31.3661 25.5268 28.5268 28.3661C25.6875 31.1518 22.1786 32.5982 18 32.7054ZM26.1161 21.6161C25.8482 21.4554 25.3393 21.1875 24.5893 20.8125C23.8393 20.4911 23.3304 20.2768 23.0625 20.1696C22.6875 19.9018 22.3661 19.9554 22.0982 20.3304C21.8839 20.5982 21.6429 20.9196 21.375 21.2946C21.0536 21.6696 20.8125 21.9375 20.6518 22.0982C20.4375 22.4196 20.1161 22.4464 19.6875 22.1786C18.4018 21.5893 17.2768 20.9196 16.3125 20.1696C15.3482 19.4196 14.4643 18.3214 13.6607 16.875C13.4464 16.5536 13.5268 16.2321 13.9018 15.9107C14.1696 15.6964 14.5179 15.2143 14.9464 14.4643C15.0536 14.1964 15.0268 13.9286 14.8661 13.6607C14.8125 13.6071 14.7054 13.3393 14.5446 12.8571C14.3839 12.4286 14.1964 11.9464 13.9821 11.4107C13.7679 10.9821 13.6071 10.6339 13.5 10.3661C13.1786 9.72321 12.8839 9.48214 12.6161 9.64286C12.5625 9.64286 12.5357 9.64286 12.5357 9.64286C12.2679 9.64286 11.9732 9.64286 11.6518 9.64286C11.3304 9.58928 10.9286 9.75 10.4464 10.125C10.4464 10.1786 10.4196 10.2321 10.3661 10.2857C10.0982 10.5 9.80357 10.9018 9.48214 11.4911C9.16071 12.0804 8.97321 12.8839 8.91964 13.9018C8.97321 14.9732 9.24107 15.9643 9.72321 16.875C10.2054 17.7321 10.5268 18.2679 10.6875 18.4821C10.6875 18.4821 10.7143 18.4821 10.7679 18.4821C10.7679 18.5357 10.7946 18.5893 10.8482 18.6429C11.1161 19.125 11.9196 20.0893 13.2589 21.5357C14.5446 22.9821 16.2321 24.2143 18.3214 25.2321C19.7143 25.8214 20.7857 26.1964 21.5357 26.3571C22.3393 26.4643 23.0625 26.4643 23.7054 26.3571C24.1875 26.25 24.75 26.0089 25.3929 25.6339C26.0357 25.2589 26.4643 24.8036 26.6786 24.2679C27.0536 23.0893 27.1607 22.3661 27 22.0982C26.8929 21.9375 26.6786 21.8036 26.3571 21.6964C26.25 21.6429 26.1696 21.6161 26.1161 21.6161Z" fill="white"/>
</svg>
